<?xml version="1.0" encoding="UTF-8"?>
<svg xmlns="http://www.w3.org/2000/svg" xmlns:xlink="http://www.w3.org/1999/xlink" width="250px" height="250px" viewBox="0 0 250 250" version="1.1">
<g id="surface1">
<path style="fill-rule:nonzero;fill:rgb(34.117648%,0%,98.039216%);fill-opacity:1;stroke-width:1;stroke-linecap:butt;stroke-linejoin:miter;stroke:rgb(34.117648%,0%,98.039216%);stroke-opacity:1;stroke-miterlimit:4;" d="M 38.5 1 L 38 1 L 38 0.5 C 38 0.22375 37.77625 0 37.5 0 C 37.22375 0 37 0.22375 37 0.5 L 37 1 L 29 1 L 29 0.5 C 29 0.22375 28.77625 0 28.5 0 C 28.22375 0 28 0.22375 28 0.5 L 28 1 L 27.5 1 C 26.11925 1 25 2.11925 25 3.5 L 25 13.5 C 25 14.88075 26.11925 16 27.5 16 L 38.5 16 C 39.88075 16 41 14.88075 41 13.5 L 41 3.5 C 41 2.11925 39.88075 1 38.5 1 Z M 38.5 2 C 39.1335 2.00275 39.69675 2.40275 39.908 3 L 38 3 L 38 2 Z M 37 2 L 37 3 L 29 3 L 29 2 Z M 27.5 2 L 28 2 L 28 3 L 26.092 3 C 26.30325 2.40275 26.8665 2.00275 27.5 2 Z M 38.5 15 L 27.5 15 C 26.6715 15 26 14.3285 26 13.5 L 26 4 L 40 4 L 40 13.5 C 40 14.3285 39.3285 15 38.5 15 Z M 37.854 6.146 C 37.948 6.23975 38.001 6.36725 38.001 6.5 C 38.001 6.63275 37.948 6.76025 37.854 6.854 L 31.854 12.854 C 31.76025 12.948 31.63275 13.001 31.5 13.001 C 31.36725 13.001 31.23975 12.948 31.146 12.854 L 28.146 9.854 C 27.9505 9.6585 27.9505 9.3415 28.146 9.146 C 28.3415 8.9505 28.6585 8.9505 28.854 9.146 L 31.5 11.793 L 37.146 6.146 C 37.23975 6.052 37.36725 5.999 37.5 5.999 C 37.63275 5.999 37.76025 6.052 37.854 6.146 Z M 37.854 6.146 " transform="matrix(15.625,0,0,15.625,-390.625,0)"/>
</g>
</svg>
